<?xml version="1.0" encoding="UTF-8" standalone="no"?>
<!-- Created with Inkscape (http://www.inkscape.org/) -->

<svg
   width="165.4509mm"
   height="165.4509mm"
   viewBox="0 0 165.45091 165.4509"
   version="1.1"
   id="svg5"
   inkscape:version="1.2.2 (b0a84865, 2022-12-01)"
   sodipodi:docname="middleEastMacrame.svg"
   xmlns:inkscape="http://www.inkscape.org/namespaces/inkscape"
   xmlns:sodipodi="http://sodipodi.sourceforge.net/DTD/sodipodi-0.dtd"
   xmlns="http://www.w3.org/2000/svg"
   xmlns:svg="http://www.w3.org/2000/svg">
  <sodipodi:namedview
     id="namedview7"
     pagecolor="#4b4b4b"
     bordercolor="#666666"
     borderopacity="1.0"
     inkscape:showpageshadow="2"
     inkscape:pageopacity="0"
     inkscape:pagecheckerboard="0"
     inkscape:deskcolor="#d1d1d1"
     inkscape:document-units="mm"
     showgrid="true"
     inkscape:zoom="0.48229806"
     inkscape:cx="203.19385"
     inkscape:cy="290.27693"
     inkscape:window-width="1204"
     inkscape:window-height="682"
     inkscape:window-x="152"
     inkscape:window-y="25"
     inkscape:window-maximized="0"
     inkscape:current-layer="layer1"
     showguides="false">
    <inkscape:grid
       type="xygrid"
       id="grid17175"
       originx="-5.8716706"
       originy="-3.6772876" />
  </sodipodi:namedview>
  <defs
     id="defs2">
    <rect
       x="72.569237"
       y="192.82681"
       width="147.21187"
       height="288.20352"
       id="rect1138" />
    <rect
       x="-167.94594"
       y="1546.7614"
       width="161.72572"
       height="352.47913"
       id="rect1132" />
    <rect
       x="190.7534"
       y="435.41541"
       width="68.422417"
       height="89.156487"
       id="rect1364" />
  </defs>
  <g
     inkscape:label="Layer 1"
     inkscape:groupmode="layer"
     id="layer1"
     transform="translate(-35.103837,-58.984784)">
    <rect
       style="font-variation-settings:normal;opacity:0.85;vector-effect:none;fill:#000000;fill-opacity:1;fill-rule:evenodd;stroke:#090909;stroke-width:1.42285;stroke-linecap:butt;stroke-linejoin:miter;stroke-miterlimit:4;stroke-dasharray:none;stroke-dashoffset:0;stroke-opacity:1;stop-color:#000000;stop-opacity:1"
       id="rect21019"
       width="164.02805"
       height="164.02805"
       x="-199.84331"
       y="59.696209"
       transform="scale(-1,1)" />
    <g
       id="g21029"
       transform="translate(4.3887042,4.9372998)">
      <circle
         style="fill:#ffffff;fill-opacity:0;fill-rule:evenodd;stroke:#ffffff;stroke-width:8;stroke-miterlimit:0;stroke-dasharray:none;stroke-opacity:1"
         id="path3870"
         cx="113.54597"
         cy="136.61057"
         r="75.717194" />
      <g
         aria-label="M"
         transform="matrix(0.99574042,0,0,1.0042778,5.4858956,2.7429435)"
         id="text1370-3-3-62"
         style="font-size:117.051px;font-family:'Clicker Script';-inkscape-font-specification:'Clicker Script, Normal';fill:#ffffff;stroke-width:5.5;stroke-dasharray:none">
        <path
           id="path15992"
           style="fill:#ffffff;stroke-width:39.4;stroke-dasharray:none"
           d="m 167.61719,86.691406 c -1.42743,0.166276 -1.92042,1.737186 -2.0703,2.956593 -3.87861,16.154671 -7.92548,32.287511 -12.94593,48.116341 -1.95665,5.80821 -4.15193,11.62066 -7.58924,16.77472 -0.99797,1.41131 -2.09492,3.10118 -3.8995,3.49251 -1.42883,0.1864 -2.36703,-1.24533 -2.87287,-2.38546 -1.56868,-3.50616 -1.60736,-7.39207 -1.83948,-11.17811 -0.18918,-6.1752 0.0297,-12.35348 -0.0196,-18.53008 0.0622,-10.77367 0.12026,-21.5474 0.22909,-32.320732 -1.22037,-1.112148 -3.55131,-1.166367 -4.39775,0.422682 -0.55227,1.770407 -0.86224,3.630638 -1.32157,5.435497 -2.89181,12.287143 -5.86961,24.566793 -9.14787,36.759013 -1.55048,5.71709 -3.15171,11.42524 -5.16238,17.00084 -4.02042,11.42218 -9.0128,22.53205 -14.85325,33.16126 -0.32206,1.36034 1.11936,2.36653 2.30467,2.5325 1.34844,0.13287 2.33101,-1.00021 2.9634,-2.04238 6.14482,-8.16139 10.11757,-17.70091 13.37945,-27.31352 3.47578,-10.26778 5.78398,-20.87442 8.13882,-31.44262 0.5634,-2.49652 1.13673,-4.99142 1.77421,-7.4703 -0.49349,4.96654 -0.98255,9.93842 -1.44447,14.9101 -0.54238,6.13066 -1.00034,12.2903 -0.79552,18.44738 0.24338,3.44614 1.18192,7.15953 3.89233,9.50775 3.18912,2.47095 7.89837,2.15844 11.13739,-0.0572 4.23288,-2.66131 6.93152,-7.07244 9.14053,-11.43459 3.18214,-6.57125 5.30493,-13.59194 7.21995,-20.61775 0.85249,-3.21131 1.65366,-6.4356 2.47088,-9.65611 -1.48465,11.9574 -3.53557,23.92395 -3.28252,36.01535 0.21475,7.55141 1.86054,15.30916 6.19472,21.61961 3.99613,5.93345 10.44401,10.34062 17.5907,11.30158 0.96344,0.2616 1.67893,-0.78174 1.95413,-1.58889 0.43969,-1.22333 -0.17876,-2.71661 -1.44741,-3.12846 -3.67374,-1.76343 -6.71658,-4.69057 -8.84273,-8.0906 -2.48981,-3.96441 -3.87863,-8.53296 -4.88096,-13.03201 -1.48357,-7.06685 -1.82251,-14.25559 -1.92215,-21.4579 -0.0737,-10.1548 0.44366,-20.30378 1.14369,-30.42533 0.5951,-8.10689 1.26141,-16.216813 1.92613,-24.312964 0.002,-1.022054 -0.8357,-1.953302 -1.88669,-1.91844 -0.27677,-0.04112 -0.55855,-0.08559 -0.83792,-0.05031 z" />
      </g>
      <g
         aria-label="M"
         transform="matrix(0.99574042,0,0,1.0042778,-66.617098,10.359468)"
         id="text1370-3-3-62-9"
         style="font-size:117.051px;font-family:'Clicker Script';-inkscape-font-specification:'Clicker Script, Normal';fill:#ffffff;stroke-width:5.5;stroke-dasharray:none">
        <path
           id="path15992-5"
           style="fill:#ffffff;stroke-width:39.4;stroke-dasharray:none"
           d="m 167.61719,86.691406 c -1.42743,0.166276 -1.92042,1.737186 -2.0703,2.956593 -3.87861,16.154671 -7.92548,32.287511 -12.94593,48.116341 -1.95665,5.80821 -4.15193,11.62066 -7.58924,16.77472 -0.99797,1.41131 -2.09492,3.10118 -3.8995,3.49251 -1.42883,0.1864 -2.36703,-1.24533 -2.87287,-2.38546 -1.56868,-3.50616 -1.60736,-7.39207 -1.83948,-11.17811 -0.18918,-6.1752 0.0297,-12.35348 -0.0196,-18.53008 0.0622,-10.77367 0.12026,-21.5474 0.22909,-32.320732 -1.22037,-1.112148 -3.55131,-1.166367 -4.39775,0.422682 -0.55227,1.770407 -0.86224,3.630638 -1.32157,5.435497 -2.89181,12.287143 -5.86961,24.566793 -9.14787,36.759013 -1.55048,5.71709 -3.15171,11.42524 -5.16238,17.00084 -4.02042,11.42218 -9.0128,22.53205 -14.85325,33.16126 -0.32206,1.36034 1.11936,2.36653 2.30467,2.5325 1.34844,0.13287 2.33101,-1.00021 2.9634,-2.04238 6.14482,-8.16139 10.11757,-17.70091 13.37945,-27.31352 3.47578,-10.26778 5.78398,-20.87442 8.13882,-31.44262 0.5634,-2.49652 1.13673,-4.99142 1.77421,-7.4703 -0.49349,4.96654 -0.98255,9.93842 -1.44447,14.9101 -0.54238,6.13066 -1.00034,12.2903 -0.79552,18.44738 0.24338,3.44614 1.18192,7.15953 3.89233,9.50775 3.18912,2.47095 7.89837,2.15844 11.13739,-0.0572 4.23288,-2.66131 6.93152,-7.07244 9.14053,-11.43459 3.18214,-6.57125 5.30493,-13.59194 7.21995,-20.61775 0.85249,-3.21131 1.65366,-6.4356 2.47088,-9.65611 -1.48465,11.9574 -3.53557,23.92395 -3.28252,36.01535 0.21475,7.55141 1.86054,15.30916 6.19472,21.61961 3.99613,5.93345 10.44401,10.34062 17.5907,11.30158 0.96344,0.2616 1.67893,-0.78174 1.95413,-1.58889 0.43969,-1.22333 -0.17876,-2.71661 -1.44741,-3.12846 -3.67374,-1.76343 -6.71658,-4.69057 -8.84273,-8.0906 -2.48981,-3.96441 -3.87863,-8.53296 -4.88096,-13.03201 -1.48357,-7.06685 -1.82251,-14.25559 -1.92215,-21.4579 -0.0737,-10.1548 0.44366,-20.30378 1.14369,-30.42533 0.5951,-8.10689 1.26141,-16.216813 1.92613,-24.312964 0.002,-1.022054 -0.8357,-1.953302 -1.88669,-1.91844 -0.27677,-0.04112 -0.55855,-0.08559 -0.83792,-0.05031 z" />
      </g>
      <path
         style="fill:#ffffff;stroke:#ffffff;stroke-width:8;stroke-linecap:butt;stroke-linejoin:miter;stroke-dasharray:none;stroke-opacity:1"
         d="M 45.989932,105.35145 C 171.81735,91.664963 171.81735,91.664963 171.81735,91.664963"
         id="path1579" />
    </g>
    <text
       xml:space="preserve"
       transform="scale(0.26458333)"
       id="text1136"
       style="font-style:normal;font-weight:normal;font-size:40px;line-height:1.25;font-family:sans-serif;white-space:pre;shape-inside:url(#rect1138);display:inline;fill:#000000;fill-opacity:1;stroke:none" />
  </g>
</svg>
